# xmcd
#
# Track frame offsets:
#	183
#	7508
#	15695
#	22850
#	32670
#	43513
#	54233
#	64145
#	72220
#	80503
#	90870
#	99420
#	109983
#	119758
#	131178
#	141338
#	151195
#	159208
#	167433
#	175083
#	183183
#	189708
#	199858
#	206620
#	212520
#	223658
#	234608
#	243695
#	253095
#	261258
#	270983
#	278365
#
# Disc length: 3852 seconds
#
# Revision: 0
# Processed by: cddbd v1.5.1PL0 Copyright (c) Steve Scherf et al.
# Submitted via: EasyCDDAExtractor 4.5.0.2
#
DISCID=b00f0a20
DTITLE=x - Das grosse Musikantentreffen
DYEAR=1900
DGENRE=Volksmusik und Schlager
TTITLE0=Die 3 lustigen Hozknecht - Ja, mir drei Holzknecht
TTITLE1=Dei 4 Spatzen aus Tirol - Herzliche Grüsse
TTITLE2=Stoabach Sextett - Zielschuss Polka
TTITLE3=Orig. Tiroler Buam - Hast du an Stern am Himmel steh'n
TTITLE4=Atlantis - Grüss Gott beinand
TTITLE5=Sonnalm Echo mit Ingrid u. Manuela - Freunde der Berge
TTITLE6=Zillertaler Schürzenjäger - Ein Tag wie ich ihn mag
TTITLE7=Tiroler Spatzen - Mein Herz gehört nur dir
TTITLE8=Altsteirer Trio - Durch die Klamm
TTITLE9=Die lustigen Lavanttaler - Sehnsucht nach der Heimat
TTITLE10=Orig. Imbach Trio - Ein Sträussel Edelweiss
TTITLE11=Orig. Pinzgauer Musikanten - Trompetenlois
TTITLE12=Serles Buam - Ein Mutterherz
TTITLE13=Wipptal Express - Blumen von Bergeshöhn
TTITLE14=Auner Buam - Lumpengaudi
TTITLE15=Orig. Dorfschwalben Quintett - Immer auf Achse
TTITLE16=Hahnenkamm Trio mit den Kitzbühler Dirndln - Ja, ja , die Jodelei
TTITLE17=Seppel und seine Landsknechte - Wir grüssen mit Musik
TTITLE18=Die jungen Klostertaler - Komm her zu mir
TTITLE19=Brandstätter Buam - Mit Schwung und guter Laune
TTITLE20=Tiroler Musikvagabunden - A tiroler Musig
TTITLE21=Zillertal Echo - Heit is nett
TTITLE22=Zellberg Duo mit Doris - Ja die Martina
TTITLE23=Trio Alpspitz Echo - Werdenfelser Löffel Polka
TTITLE24=Die lustigen Senner mit Braco Koren - Die kleine Eisenbahn
TTITLE25=Orig. Almrausch Quintett - A Stamperl für di Musi
TTITLE26=Orig. Oberkrainer Sextett - Im 7. Himmel
TTITLE27=Lederhosen Duo - Zwoa kernige Tiroler
TTITLE28=Orig. Milser Musikanten mit Jolanda und Gerhard - Tausend Rosen schen
TTITLE28=k' ich dir
TTITLE29=Orig. Grenzland Sextett - Polka Elan
TTITLE30=Orig. Schwarzwald Echo - Komm, mach ein bisschen Urlaub
TTITLE31=Orig. Bergland Duo - Heute woll'n wir fröhlich sein
EXTD=Cd von I.B.\n
EXTT0=
EXTT1=
EXTT2=
EXTT3=
EXTT4=
EXTT5=
EXTT6=
EXTT7=
EXTT8=
EXTT9=
EXTT10=
EXTT11=
EXTT12=
EXTT13=
EXTT14=
EXTT15=
EXTT16=
EXTT17=
EXTT18=
EXTT19=
EXTT20=
EXTT21=
EXTT22=
EXTT23=
EXTT24=
EXTT25=
EXTT26=
EXTT27=
EXTT28=
EXTT29=
EXTT30=
EXTT31=
PLAYORDER=
